PathFileType	4	(X/Y/Z)	Patient4_TMGait_0pt5_01_right_40.trc.trc
DataRate	CameraRate	NumFrames	NumMarkers	Units	OrigDataRate	OrigDataStartFrame	OrigNumFrames
74.866310160428	74.866310160428	6	33	mm	74.866310160428	53	       141
Frame#	Time	L.ASIS			Sacral			L.Shoulder			Chest			R.Shoulder			Neck			R.ASIS			R.Thigh.Superior			R.Thigh.Lateral			R.Thigh.Inferior			R.Patella			L.Thigh.Superior			L.Thigh.Lateral			L.Thigh.Inferior			L.Patella			L.Shank.Superior			L.Shank.Lateral			L.Shank.Inferior			R.Shank.Superior			R.Shank.Lateral			R.Shank.Inferior			R.Heel			R.Midfoot.Superior			R.Midfoot.Lateral			R.Toe			L.Heel			L.Midfoot.Lateral			L.Midfoot.Superior			L.Toe			L.Elbow			L.Wrist			R.Elbow			R.Wrist			
		X1	Y1	Z1	X2	Y2	Z2	X3	Y3	Z3	X4	Y4	Z4	X5	Y5	Z5	X6	Y6	Z6	X7	Y7	Z7	X8	Y8	Z8	X9	Y9	Z9	X10	Y10	Z10	X11	Y11	Z11	X12	Y12	Z12	X13	Y13	Z13	X14	Y14	Z14	X15	Y15	Z15	X16	Y16	Z16	X17	Y17	Z17	X18	Y18	Z18	X19	Y19	Z19	X20	Y20	Z20	X21	Y21	Z21	X22	Y22	Z22	X23	Y23	Z23	X24	Y24	Z24	X25	Y25	Z25	X26	Y26	Z26	X27	Y27	Z27	X28	Y28	Z28	X29	Y29	Z29	X30	Y30	Z30	X31	Y31	Z31	X32	Y32	Z32	X33	Y33	Z33	

53	53.344571428571	769.426513249361	967.526574545858	370.073406130936	564.986466788887	1014.740253482857	537.679929990585	730.506562873788	1443.220130301108	356.609878494215	845.188966220539	1367.974359289128	507.256999709265	777.139315416504	1438.112781163259	690.108862296144	742.217045211828	1501.535922606642	509.823645119669	795.735143523116	945.565242502567	643.163022353243	817.878362688011	739.086265559710	613.834076718967	725.506313650191	636.439697273109	670.266094371498	797.555975963566	578.851122438382	590.971265389183	790.195144686789	493.585834173227	594.308083035548	853.535786177986	790.106599456871	393.830880943422	810.217150205100	664.564434514090	312.567311944505	916.687615078914	604.180650929904	368.158453260815	935.593911892322	518.899197842335	359.265276959172	883.529137434370	445.297786609801	351.843409263432	755.913914305113	372.358567721485	303.824639324202	776.481410501533	243.115322827028	356.591481545098	761.922251721350	406.483701874501	597.680702286007	687.355650218484	302.119594233153	651.984159762097	732.163280055596	208.819218153154	588.341400217866	596.175604743126	45.204572713844	545.712776194083	767.830258391850	97.405598667962	590.429307701386	676.822274753702	36.806109941874	623.389534847511	885.341484182916	40.181640778325	621.185867877366	608.380268566652	134.630908134105	395.425960798990	673.047540494095	104.039333105532	314.043189517079	772.927657982144	137.138478680048	333.322283688926	873.968995507519	47.177149465113	304.429316129102	630.038032169392	1098.786381113094	254.241757489129	635.076673012397	838.736131868610	254.496794582341	862.679903825244	1105.438439680333	806.901458380832	1110.041006254045	1077.959032489863	750.006285414085	
54	53.357928571429	767.245358836015	967.684427020503	370.088756430998	564.210291403323	1015.104957147697	539.310100041129	729.115995935235	1443.532696459106	358.010764469509	845.042299638770	1367.504221405066	507.314205831402	779.063150926093	1437.633072808919	690.854287634629	742.375663932690	1501.379583180558	511.170489937458	795.237830225395	945.015044732994	643.009737331517	814.798085033040	738.255911763023	613.041228967893	722.047961333549	636.293831364787	670.534985030581	792.869704385642	578.112505845143	590.799237882654	784.763848689318	493.091869620836	594.317785444201	851.522809860729	791.122107300835	393.621536281959	808.937069039072	665.190417860239	312.517911879935	915.382638954877	605.525691103163	368.598374147218	935.927087393092	522.123963092878	359.412950469782	888.068568119504	447.540232430481	351.628978631668	765.718723142079	366.477499381181	303.621020518439	795.368606643816	238.562433942470	355.848587229016	756.092712257913	406.120953048714	597.714549626086	681.315687291105	302.051308158408	652.207770400246	725.744330926564	208.626168405755	588.400860924236	589.381079541699	45.106590785281	545.768474991411	761.017999925634	97.327451488888	590.424556461599	670.041981758933	36.761610456947	623.475991213072	878.544394194074	40.213383422455	621.236664128436	635.575410786544	118.043151375734	395.076214217177	701.884862380844	92.892291967324	313.086448768194	799.231232287479	132.886122883074	332.083183604079	906.348142639650	50.885196679881	302.008164261169	622.058937437012	1101.069378812317	256.944962500328	624.055684757752	840.761573193504	259.566760101751	873.006903003508	1107.996349462901	806.439779254395	1120.337821754018	1094.489109865022	746.107706504131	
55	53.371285714286	765.090482556009	967.575029412309	369.926878704465	563.528735376818	1015.227218653813	540.841603076565	727.710239768114	1443.648506098259	359.262672754691	844.860322890047	1366.859118542648	507.227815950924	780.897283019285	1436.928689285911	691.427485985474	742.493588799595	1501.033098447990	512.369645688813	794.811656572405	944.319792018060	642.687363532966	811.941719941288	737.341537847563	612.295869976788	718.803596252932	636.031433097623	670.765072948878	788.463893421210	577.293126909962	590.635067383251	779.593316300770	492.470173410659	594.306246429611	849.120539196305	791.434609978062	393.304223753811	807.067512620048	665.226607478046	312.352784488379	913.198693960509	606.019008328871	369.221104273628	935.308119278026	524.732448486539	359.749521783532	891.815447622795	449.503553588509	351.543457339775	775.544765749709	360.425872306212	303.264648560780	814.262889880976	234.516805880895	355.149370248176	750.480614939109	405.630814436868	597.720796537294	675.434596885810	301.893648190344	652.408197664893	719.384769015542	208.325059728597	588.411341385497	582.580957381514	44.952245092385	545.817385590266	754.165111424930	97.224997816216	590.370731559071	663.248202427135	36.703562337901	623.559859713173	871.738821923288	40.254452555418	621.271639246371	663.654277454229	102.437087179429	394.446110565441	731.502370980572	82.695728469851	312.121587794797	825.773541274236	129.486952259901	331.036819013456	938.546296418089	55.763515582990	300.314641098755	614.618662625396	1103.136656738413	259.511875179058	613.841588140702	842.616720062716	264.275545921055	882.919503564110	1110.530253990646	805.755049966304	1129.403567046805	1110.484601857717	742.020689275060	
56	53.384642857143	762.990944990722	967.209177522704	369.605164867554	562.945436246140	1015.120923188901	542.260404077733	726.307652676107	1443.576314594214	360.341261913017	844.643719918377	1366.064078593688	506.994065499558	782.611828939996	1436.030451806644	691.817244985405	742.573707871466	1500.514034211830	513.396431388724	794.470815883222	943.517042562683	642.220659114543	809.357054674029	736.358450573511	611.634531710506	715.791450055218	635.662081280454	670.950488703018	784.370800290998	576.400571858468	590.484912008098	774.716175145017	491.729057260376	594.268826475522	846.385604124992	791.089709733260	392.917790083339	804.685512847786	664.731566917274	312.067136049204	910.275613144879	605.742793020404	369.969640174894	933.868729901974	526.753121504648	360.255807175410	894.807513304120	451.234322901128	351.583571347814	785.317381416071	354.463186253797	302.768214640091	832.865980183404	231.223058885567	354.530136708363	745.119991324870	405.022450728417	597.698035109440	669.732249304418	301.658467514318	652.580783037723	713.099909409139	207.925838290013	588.375760426451	575.776582831463	44.753373375900	545.864054791516	747.277924951752	97.106270349210	590.280480089005	656.442611640829	36.635909384572	623.642193376553	864.926179350708	40.305061636129	621.293950464851	692.116416755122	88.336562976066	393.580772397081	761.403533414993	73.843136417418	311.214476775942	852.107828649202	127.186248516241	330.241870014717	970.000081277932	61.881461528320	299.462425971899	607.750658730769	1104.949044197125	261.924930097397	604.444298202196	844.257839276337	268.585921101804	892.372679531539	1113.017207095770	804.842391481851	1137.274895648167	1125.841276644193	737.765002574291	
57	53.398000000000	760.975591791481	966.614693450610	369.143797532792	562.460317115818	1014.812928588555	543.552473357356	724.927106809563	1443.334254355500	361.223860721864	844.396557603730	1365.152914175831	506.610196728116	784.185537382241	1434.983155473449	692.013275987644	742.617515794693	1499.849594684457	514.226483461437	794.226823633982	942.645425093711	641.634163906422	807.073062719844	735.322939971468	611.068448714080	713.023494270537	635.199448384416	671.080099178795	780.606021206327	575.446442982892	590.340077392887	770.152857595401	490.881562516955	594.192339656318	843.397759496789	790.167923868753	392.489064058229	801.883103278067	663.784953099708	311.668799462889	906.792052933013	604.816528156093	370.759791951622	931.765603774177	528.235405721788	360.894843456346	897.103001301418	452.773894361096	351.730980885097	794.912490924083	348.813450639044	302.169420789954	850.862951368666	228.833432010447	354.016516798308	740.031779504225	404.310310654458	597.639410663824	664.222599944161	301.361879626792	652.718919506244	706.902102888989	207.442928306359	588.296121991840	568.969517433189	44.525396231836	545.911033210047	740.365308884793	96.979595973142	590.166696524834	649.627677455027	36.563029113954	623.723333884041	858.108614186413	40.365094166367	621.306752472238	720.393484850969	76.110617576321	392.566289799989	791.015780748484	66.580646265308	310.434921118538	877.759934752359	126.102034374660	329.725463224379	1000.160073881373	69.171562754927	299.463299004312	601.478986180579	1106.482086721007	264.158940903456	595.873562690357	845.656155556827	272.462341981287	901.315726918439	1115.438371044835	803.695164309105	1143.994696111908	1140.469999526828	733.362778514718	
58	53.411357142857	759.073991533659	965.831605052083	368.564110817606	562.071677038815	1014.337112352854	544.704753728246	723.584566474472	1442.945602202334	361.890943968431	844.124781764542	1364.164067339379	506.074400864952	785.605710312685	1433.839489378641	692.006974189627	742.623281656046	1499.072682526137	514.837559551664	794.089485541195	941.739967348638	640.950294779726	805.101076176936	734.250706755970	610.584861673952	710.508169554222	634.659165095035	671.139721935625	777.171821555619	574.444575615031	590.180054710545	765.912619917424	489.943019778096	594.057897205843	840.263912818510	788.778162440091	392.031876991150	798.769910460439	662.477086365721	311.183735189894	902.958486261463	603.383026904002	371.495025175863	929.177351826507	529.240376490434	361.616606412512	898.778903789450	454.148981712563	351.955623555918	804.160208979301	343.649963524073	301.531703903457	867.931583334343	227.396063556933	353.621915410978	735.225657144663	403.512089890465	597.534513549947	658.915019468659	301.022145181311	652.815234733709	700.800970946500	206.893139277551	588.173449344930	562.162048213323	44.285428793229	545.959509763047	733.438036488457	96.852361017288	590.040833250313	642.806715616819	36.489190508515	623.802778719800	851.289212800003	40.433320814538	621.313167065024	747.871445620203	65.962270357865	391.525683197842	819.701772873931	61.000223110674	309.848801920681	902.237078246209	126.216694012859	329.478532029735	1028.491454755406	77.419267695376	300.211468313945	595.819757756572	1107.722734683530	266.181868188846	588.141121214372	846.794095038969	275.870004602398	909.693787807795	1117.775322488340	802.308193500880	1149.611839068685	1154.294173557782	728.839268152979	
